<svg aria-hidden="true" style="position: absolute; width: 0; height: 0; overflow: hidden;" version="1.1" xmlns="http://www.w3.org/2000/svg" xmlns:xlink="http://www.w3.org/1999/xlink">
<defs>
<symbol id="icon-bootstrap" viewBox="0 0 32 32">
<title>bootstrap</title>
<path fill="#563d7c" style="fill: var(--color1, #563d7c)" d="M26.667 0h-21.333c-2.943 0.008-5.325 2.391-5.333 5.333v21.333c0 2.933 2.4 5.333 5.333 5.333h21.333c2.933 0 5.333-2.4 5.333-5.333v-21.333c0-2.933-2.4-5.333-5.333-5.333zM23.751 22.473c-0.267 0.643-0.689 1.209-1.231 1.645-0.56 0.453-1.269 0.827-2.143 1.093-0.872 0.271-1.909 0.407-3.111 0.407h-8.576v-18.667h9.069c1.677 0 3.021 0.377 4.027 1.147 1.013 0.773 1.517 1.925 1.517 3.48 0 0.94-0.229 1.747-0.691 2.413-0.459 0.663-1.12 1.181-1.973 1.541v0.061c1.139 0.24 2.020 0.78 2.6 1.62s0.877 1.901 0.877 3.183c0 0.717-0.139 1.4-0.4 2.037l0.033 0.036zM20.049 17.873c-0.547-0.5-1.315-0.744-2.307-0.744h-5.763v5.824h5.779c0.987 0 1.76-0.256 2.307-0.773 0.547-0.513 0.827-1.245 0.827-2.187-0.009-0.92-0.28-1.632-0.827-2.12h-0.023zM19.249 14.109c0.528-0.448 0.787-1.089 0.787-1.925 0-0.939-0.233-1.605-0.707-1.987-0.469-0.38-1.147-0.577-2.037-0.577h-5.333v5.151h5.333c0.777 0 1.44-0.227 1.952-0.661z"></path>
</symbol>
<symbol id="icon-vue-dot-js" viewBox="0 0 32 32">
<title>vue-dot-js</title>
<path fill="#4fc08d" style="fill: var(--color2, #4fc08d)" d="M25.596 2.144l0.004-0.008h-5.9l-3.7 6.4-3.696-6.4h-5.9v0.007h-6.404l16 27.715 16-27.713z"></path>
</symbol>
<symbol id="icon-applepay" viewBox="0 0 32 32">
<title>applepay</title>
<path d="M5.851 11.045c-0.376 0.449-0.976 0.803-1.576 0.752-0.075-0.607 0.219-1.251 0.563-1.649 0.376-0.461 1.032-0.788 1.563-0.815 0.063 0.632-0.181 1.251-0.549 1.712zM6.393 11.917c-0.868-0.051-1.613 0.5-2.024 0.5-0.42 0-1.051-0.475-1.739-0.461-0.893 0.013-1.724 0.524-2.18 1.34-0.939 1.629-0.244 4.044 0.661 5.371 0.444 0.657 0.976 1.377 1.676 1.352 0.661-0.025 0.924-0.436 1.724-0.436 0.807 0 1.037 0.436 1.739 0.424 0.724-0.013 1.18-0.657 1.624-1.315 0.507-0.747 0.713-1.472 0.725-1.511-0.013-0.013-1.4-0.549-1.413-2.167-0.012-1.353 1.093-1.997 1.144-2.035-0.624-0.936-1.6-1.037-1.937-1.063zM11.413 10.085v9.852h1.513v-3.368h2.093c1.912 0 3.256-1.328 3.256-3.248 0-1.921-1.319-3.236-3.205-3.236h-3.659zM12.927 11.375h1.744c1.312 0 2.061 0.707 2.061 1.952s-0.749 1.96-2.068 1.96h-1.739v-3.913zM21.039 20.012c0.951 0 1.832-0.485 2.232-1.257h0.031v1.183h1.4v-4.904c0-1.421-1.125-2.339-2.856-2.339-1.607 0-2.793 0.929-2.837 2.205h1.363c0.112-0.607 0.668-1.004 1.431-1.004 0.925 0 1.444 0.436 1.444 1.239v0.543l-1.888 0.115c-1.756 0.107-2.707 0.833-2.707 2.097 0 1.276 0.981 2.123 2.388 2.123zM21.445 18.844c-0.807 0-1.32-0.392-1.32-0.992 0-0.62 0.495-0.98 1.439-1.037l1.68-0.107v0.556c0 0.923-0.773 1.58-1.8 1.58zM26.571 22.617c1.475 0 2.168-0.569 2.773-2.295l2.656-7.533h-1.537l-1.781 5.82h-0.031l-1.781-5.82h-1.581l2.561 7.173-0.137 0.436c-0.231 0.739-0.605 1.023-1.275 1.023-0.119 0-0.349-0.013-0.444-0.025v1.183c0.088 0.025 0.463 0.037 0.576 0.037z"></path>
</symbol>
<symbol id="icon-csswizardry" viewBox="0 0 32 32">
<title>csswizardry</title>
<path fill="#f43059" style="fill: var(--color3, #f43059)" d="M0.040 21.904v-20.413c0-0.824 0.667-1.491 1.489-1.491h28.871c0.832 0 1.493 0.667 1.493 1.493v19.68c-0.893-0.547-1.947-0.821-3.143-0.821-1.672 0-2.94 0.4-3.805 1.195-0.867 0.797-1.293 1.771-1.293 2.967 0 1.293 0.44 2.253 1.333 2.867 0.52 0.38 1.48 0.72 2.853 1.016l1.4 0.32c0.84 0.177 1.427 0.4 1.813 0.613 0.373 0.244 0.573 0.583 0.573 1.020 0 0.755-0.387 1.273-1.16 1.531l-0.040 0.021h-2.947c-0.383-0.139-0.68-0.339-0.92-0.6-0.24-0.299-0.4-0.733-0.48-1.351h-2.64c0 0.755 0.137 1.393 0.44 1.973h-2.24c0.253-0.52 0.4-1.097 0.4-1.756 0-1.173-0.4-2.067-1.181-2.688-0.499-0.396-1.253-0.713-2.251-0.956l-2.293-0.536c-0.88-0.187-1.453-0.373-1.733-0.533-0.413-0.24-0.613-0.6-0.613-1.053 0-0.507 0.213-0.907 0.627-1.187 0.44-0.28 1-0.413 1.72-0.413 0.653 0 1.173 0.12 1.613 0.347 0.659 0.341 1 0.92 1.053 1.716h2.667c-0.040-1.395-0.553-2.471-1.533-3.205-0.992-0.733-2.167-1.113-3.56-1.113-1.673 0-2.927 0.4-3.804 1.173-0.853 0.777-1.293 1.773-1.293 2.947 0 1.293 0.44 2.251 1.333 2.867 0.536 0.36 1.493 0.697 2.867 1.013l1.393 0.32c0.813 0.18 1.413 0.38 1.813 0.62 0.373 0.24 0.573 0.573 0.573 1.013 0 0.76-0.4 1.253-1.173 1.533h-2.987c-0.379-0.141-0.693-0.341-0.92-0.62-0.24-0.293-0.413-0.752-0.493-1.352h-2.689c0 0.744 0.14 1.4 0.427 1.973h-2.787c0.44-0.693 0.737-1.493 0.884-2.387h-2.737c-0.187 0.68-0.416 1.197-0.7 1.533-0.347 0.44-0.8 0.72-1.36 0.86h-1.636c-0.6-0.14-1.116-0.477-1.533-1.013-0.619-0.744-0.917-1.859-0.917-3.333 0-1.493 0.307-2.627 0.88-3.44 0.6-0.817 1.373-1.213 2.387-1.213 1 0 1.733 0.28 2.253 0.859 0.28 0.32 0.52 0.8 0.693 1.435h2.773c-0.040-0.824-0.347-1.653-0.915-2.48-1.029-1.467-2.659-2.2-4.885-2.2-1.547 0-2.845 0.48-3.88 1.413l-0.067-0.147zM31.899 26.752v-2.072h-0.688c-0.047-0.796-0.4-1.363-1.044-1.699-0.417-0.219-0.956-0.331-1.591-0.331-0.72 0-1.273 0.147-1.693 0.429-0.416 0.287-0.637 0.691-0.637 1.203 0 0.473 0.221 0.827 0.636 1.060 0.293 0.14 0.867 0.339 1.747 0.539l2.293 0.547c0.4 0.080 0.747 0.2 1.067 0.307l-0.067 0.040z"></path>
</symbol>
<symbol id="icon-android" viewBox="0 0 32 32">
<title>android</title>
<path fill="#a4c639" style="fill: var(--color4, #a4c639)" d="M29.528 12.303c0-1.087-0.877-1.971-1.968-1.971s-1.973 0.88-1.973 1.973v8.253c0 1.080 0.884 1.973 1.977 1.973 1.085 0 1.968-0.893 1.968-1.973v-8.267h-0.013zM7.191 10.709l0.005 12.8c0 1.18 0.939 2.12 2.097 2.12h1.417v4.373c0 1.093 0.88 1.976 1.96 1.976s1.956-0.88 1.973-1.957v-4.373h2.657v4.373c0 1.097 0.88 1.977 1.96 1.977 1.097 0 1.976-0.88 1.976-1.987v-4.373h1.437c1.16 0 2.097-0.947 2.097-2.104v-12.84l-17.585 0.015zM20.055 6.803c-0.413 0-0.747-0.333-0.747-0.747 0-0.407 0.333-0.744 0.747-0.747 0.413 0 0.747 0.34 0.747 0.747 0 0.413-0.333 0.747-0.747 0.747zM11.975 6.803c-0.413 0-0.747-0.333-0.747-0.747 0-0.409 0.333-0.744 0.747-0.744s0.747 0.34 0.747 0.76-0.336 0.756-0.76 0.756zM20.348 2.961l1.372-2.521c0.080-0.14 0.019-0.301-0.101-0.38-0.139-0.060-0.299-0.020-0.379 0.12l-1.4 2.533c-1.157-0.54-2.475-0.84-3.853-0.84s-2.691 0.287-3.856 0.804l-1.379-2.537c-0.071-0.131-0.24-0.18-0.371-0.107-0.133 0.060-0.181 0.24-0.107 0.36l1.373 2.5c-2.707 1.396-4.533 4.053-4.533 7.107h17.771c0-3.053-1.824-5.711-4.528-7.107zM4.44 10.323c-1.089 0-1.973 0.887-1.973 1.977v8.256c0 1.093 0.885 1.973 1.979 1.973 1.085 0 1.969-0.88 1.969-1.973v-8.253c0-1.087-0.88-1.971-1.96-1.971z"></path>
</symbol>
<symbol id="icon-khanacademy" viewBox="0 0 32 32">
<title>khanacademy</title>
<path fill="#9db63b" style="fill: var(--color5, #9db63b)" d="M3.292 29.86s-4.931-11.789 3.909-20.58c8.019-7.988 20.132-9.225 22.233-9.28 0 0 3.251 10.675-4.868 22.775-8.111 12.1-19.361 8.819-19.361 8.819s11.115-14.168 9.776-14.081c-0.935 0.055-6.768 6.475-11.691 12.351z"></path>
</symbol>
<symbol id="icon-java" viewBox="0 0 32 32">
<title>java</title>
<path fill="#007396" style="fill: var(--color6, #007396)" d="M11.801 24.747s-1.223 0.712 0.871 0.952c2.536 0.291 3.832 0.249 6.625-0.281 0 0 0.736 0.461 1.761 0.861-6.265 2.684-14.177-0.157-9.257-1.532zM11.035 21.244s-1.371 1.015 0.723 1.232c2.709 0.279 4.848 0.303 8.551-0.411 0 0 0.512 0.519 1.316 0.803-7.572 2.215-16.009 0.173-10.589-1.624z"></path>
<path fill="#007396" style="fill: var(--color6, #007396)" d="M17.488 15.3c1.544 1.777-0.405 3.377-0.405 3.377s3.919-2.024 2.119-4.557c-1.681-2.363-2.971-3.536 4.009-7.584 0-0.001-10.955 2.735-5.723 8.764z"></path>
<path fill="#007396" style="fill: var(--color6, #007396)" d="M25.773 27.339s0.905 0.745-0.996 1.321c-3.616 1.096-15.051 1.425-18.225 0.044-1.141-0.497 1-1.187 1.672-1.331 0.703-0.152 1.104-0.124 1.104-0.124-1.271-0.895-8.208 1.756-3.524 2.516 12.773 2.071 23.283-0.933 19.969-2.427zM12.389 17.613s-5.816 1.381-2.059 1.883c1.585 0.212 4.748 0.164 7.693-0.083 2.408-0.203 4.824-0.636 4.824-0.636s-0.849 0.363-1.464 0.783c-5.905 1.553-17.315 0.831-14.029-0.757 2.776-1.341 5.035-1.189 5.035-1.189zM22.821 23.445c6.004-3.12 3.228-6.119 1.291-5.713-0.473 0.099-0.687 0.184-0.687 0.184s0.176-0.276 0.513-0.396c3.833-1.348 6.781 3.975-1.237 6.083 0-0.001 0.093-0.083 0.12-0.157zM19.201 0s3.325 3.325-3.153 8.44c-5.195 4.103-1.184 6.443-0.001 9.115-3.032-2.737-5.257-5.144-3.765-7.385 2.192-3.292 8.263-4.887 6.92-10.169z"></path>
<path fill="#007396" style="fill: var(--color6, #007396)" d="M12.979 31.899c5.763 0.369 14.612-0.204 14.821-2.931 0 0-0.403 1.033-4.763 1.855-4.917 0.925-10.985 0.817-14.583 0.224 0-0.001 0.737 0.609 4.524 0.852z"></path>
</symbol>
<symbol id="icon-jquery" viewBox="0 0 32 32">
<title>jquery</title>
<path fill="#0769ad" style="fill: var(--color7, #0769ad)" d="M2.045 7.832c-2.831 4.067-2.48 9.356-0.316 13.675 0.049 0.105 0.104 0.205 0.157 0.305 0.031 0.069 0.065 0.133 0.103 0.199 0.017 0.037 0.041 0.076 0.063 0.111 0.035 0.069 0.072 0.136 0.108 0.203l0.209 0.353c0.039 0.065 0.076 0.129 0.12 0.195 0.073 0.125 0.16 0.249 0.236 0.375 0.035 0.052 0.067 0.104 0.105 0.156 0.148 0.232 0.284 0.425 0.428 0.612l-0.015-0.020c0.104 0.143 0.208 0.281 0.32 0.42 0.036 0.051 0.076 0.101 0.113 0.152l0.295 0.359c0.036 0.041 0.072 0.089 0.111 0.132 0.131 0.157 0.269 0.311 0.408 0.465 0 0.003 0.004 0.005 0.007 0.009 0.172 0.217 0.358 0.409 0.56 0.582l0.006 0.005c0.107 0.109 0.213 0.219 0.327 0.325l0.135 0.129c0.148 0.139 0.296 0.277 0.452 0.411 0.003 0 0.004 0.003 0.007 0.004l0.076 0.067c0.136 0.119 0.273 0.237 0.413 0.347l0.167 0.14c0.113 0.091 0.231 0.177 0.347 0.267l0.181 0.139c0.124 0.093 0.256 0.185 0.383 0.276 0.047 0.033 0.093 0.067 0.141 0.097l0.039 0.031 0.375 0.247 0.16 0.107c0.196 0.125 0.391 0.244 0.584 0.361 0.056 0.028 0.112 0.059 0.164 0.091 0.144 0.083 0.293 0.167 0.439 0.244 0.080 0.045 0.163 0.084 0.245 0.125 0.1 0.056 0.204 0.111 0.311 0.167 0.029 0.009 0.054 0.019 0.077 0.032l-0.002-0.001c0.044 0.020 0.085 0.041 0.128 0.063 0.16 0.080 0.327 0.156 0.5 0.232 0.032 0.013 0.067 0.027 0.101 0.045 0.192 0.084 0.384 0.164 0.583 0.243 0.045 0.013 0.093 0.036 0.14 0.053 0.18 0.068 0.365 0.137 0.548 0.203l0.067 0.024c0.204 0.069 0.405 0.136 0.612 0.2 0.048 0.013 0.097 0.031 0.148 0.044 0.212 0.064 0.417 0.14 0.631 0.181 13.68 2.493 17.656-8.225 17.656-8.225-3.34 4.349-9.267 5.496-14.88 4.22-0.208-0.048-0.416-0.115-0.625-0.176-0.382-0.11-0.633-0.192-0.882-0.28l0.126 0.039-0.083-0.032c-0.181-0.061-0.356-0.129-0.533-0.197-0.034-0.015-0.082-0.033-0.132-0.050l-0.015-0.004c-0.196-0.079-0.387-0.16-0.576-0.244-0.041-0.013-0.076-0.032-0.117-0.048-0.35-0.155-0.508-0.231-0.665-0.308l0.184 0.081c-0.049-0.021-0.093-0.044-0.141-0.069-0.125-0.059-0.251-0.125-0.373-0.189-0.114-0.054-0.196-0.097-0.276-0.142l0.027 0.014c-0.151-0.080-0.301-0.167-0.452-0.249-0.045-0.032-0.097-0.059-0.149-0.088-0.289-0.169-0.479-0.288-0.668-0.409l0.084 0.050c-0.064-0.040-0.115-0.075-0.165-0.111l0.008 0.006c-0.172-0.106-0.308-0.197-0.44-0.291l0.024 0.017c-0.047-0.031-0.089-0.064-0.137-0.097-0.17-0.118-0.298-0.211-0.424-0.306l0.032 0.023c-0.056-0.045-0.116-0.088-0.176-0.133-0.117-0.092-0.236-0.18-0.353-0.277l-0.157-0.125c-0.174-0.14-0.319-0.263-0.461-0.388l0.016 0.013c-0.015-0.014-0.031-0.028-0.048-0.039l-0.001-0.001-0.463-0.421-0.133-0.125c-0.109-0.111-0.221-0.217-0.333-0.327l-0.129-0.133c-0.138-0.137-0.273-0.278-0.404-0.421l-0.008-0.009-0.020-0.021c-0.141-0.155-0.279-0.312-0.417-0.472-0.036-0.041-0.069-0.085-0.107-0.129l-0.301-0.369c-0.105-0.131-0.254-0.326-0.4-0.522l-0.054-0.075c-3.113-4.251-4.24-10.117-1.748-14.929z"></path>
<path fill="#0769ad" style="fill: var(--color7, #0769ad)" d="M10.828 4.407c-2.052 2.945-1.936 6.884-0.339 9.999 0.296 0.584 0.596 1.078 0.928 1.547l-0.025-0.038c0.307 0.44 0.645 0.96 1.056 1.315 0.143 0.163 0.297 0.32 0.459 0.479l0.12 0.12c0.152 0.147 0.308 0.291 0.467 0.433l0.020 0.017c0.16 0.141 0.34 0.29 0.524 0.435l0.028 0.021c0.045 0.031 0.084 0.067 0.128 0.097 0.187 0.144 0.375 0.283 0.569 0.42l0.020 0.012c0.083 0.060 0.171 0.115 0.264 0.173 0.037 0.024 0.080 0.056 0.12 0.080 0.141 0.091 0.28 0.176 0.423 0.263 0.023 0.009 0.043 0.021 0.064 0.031 0.12 0.073 0.251 0.144 0.376 0.209 0.044 0.027 0.087 0.047 0.132 0.072 0.089 0.044 0.177 0.091 0.263 0.136l0.043 0.019c0.18 0.088 0.364 0.171 0.544 0.253 0.045 0.017 0.084 0.032 0.123 0.051 0.148 0.064 0.299 0.125 0.447 0.183 0.067 0.023 0.129 0.049 0.192 0.069 0.136 0.051 0.279 0.097 0.413 0.144l0.187 0.060c0.195 0.060 0.392 0.139 0.597 0.172 10.56 1.751 13.005-6.383 13.005-6.383-2.201 3.168-6.461 4.677-11.001 3.499-0.277-0.071-0.476-0.13-0.673-0.195l0.076 0.022c-0.064-0.017-0.12-0.037-0.181-0.056-0.139-0.048-0.281-0.095-0.416-0.145l-0.192-0.072c-0.149-0.060-0.301-0.116-0.447-0.18-0.045-0.020-0.087-0.033-0.121-0.053-0.187-0.084-0.375-0.167-0.556-0.256l-0.275-0.143-0.159-0.080c-0.123-0.064-0.236-0.131-0.353-0.2-0.033-0.016-0.060-0.031-0.086-0.047l0.003 0.002c-0.141-0.088-0.288-0.173-0.423-0.264-0.045-0.025-0.087-0.056-0.129-0.083l-0.277-0.181c-0.192-0.133-0.38-0.277-0.569-0.416-0.043-0.039-0.084-0.071-0.125-0.105-1.996-1.569-3.571-3.715-4.317-6.144-0.787-2.525-0.613-5.357 0.745-7.656z"></path>
<path fill="#0769ad" style="fill: var(--color7, #0769ad)" d="M18.213 1.845c-1.211 1.776-1.327 3.981-0.493 5.94 0.885 2.080 2.696 3.713 4.805 4.487 0.087 0.033 0.171 0.061 0.26 0.093l0.117 0.036c0.123 0.039 0.247 0.084 0.373 0.112 5.835 1.125 7.413-2.996 7.839-3.601-1.389 1.995-3.719 2.473-6.576 1.779-0.279-0.070-0.509-0.143-0.732-0.228l0.044 0.015c-0.337-0.119-0.609-0.233-0.873-0.361l0.050 0.022c-0.55-0.269-1.022-0.562-1.462-0.896l0.021 0.016c-2.56-1.939-4.145-5.64-2.476-8.655z"></path>
</symbol>
<symbol id="icon-node-dot-js" viewBox="0 0 32 32">
<title>node-dot-js</title>
<path fill="#393" style="fill: var(--color8, #393)" d="M15.247 0.204l-12.493 7.24c-0.467 0.271-0.752 0.771-0.751 1.311v14.485c0 0.539 0.287 1.040 0.752 1.309l12.493 7.247c0.467 0.271 1.040 0.271 1.507 0l12.488-7.244c0.467-0.273 0.752-0.771 0.753-1.309v-14.488c0-0.539-0.288-1.040-0.755-1.312l-12.485-7.24c-0.467-0.271-1.043-0.271-1.507 0z"></path>
</symbol>
<symbol id="icon-angular" viewBox="0 0 32 32">
<title>angular</title>
<path fill="#dd0031" style="fill: var(--color9, #dd0031)" d="M13.24 16.86h5.512l-2.757-6.54z"></path>
<path fill="#dd0031" style="fill: var(--color9, #dd0031)" d="M15.995 0.012l-15.080 5.305 2.3 19.68 12.78 6.991 12.784-6.984 2.299-19.684-15.083-5.307zM25.405 24.408h-3.515l-1.893-4.668h-8.004l-1.893 4.668h-3.517l9.413-20.864 9.409 20.864z"></path>
</symbol>
<symbol id="icon-nucleo" viewBox="0 0 32 32">
<title>nucleo</title>
<path fill="#766dcc" style="fill: var(--color10, #766dcc)" d="M9.663 29.999c1.984 0.881 4.077 1.433 6.392 1.433s4.52-0.552 6.393-1.433c-2.093-1.433-4.299-3.196-6.393-5.071-2.093 1.875-4.299 3.637-6.392 5.071zM29.283 23.825c1.316-2.245 2.093-4.943 2.093-7.824 0-0.001 0-0.001 0-0.002v0c0-2.315-0.551-4.52-1.432-6.393-2.315 3.417-5.621 7.275-9.369 11.023-0.772 0.772-1.653 1.653-2.536 2.425-0.331-0.331-0.661-0.661-1.101-0.992 0.908-0.799 1.736-1.628 2.508-2.506l0.026-0.030c4.079-4.077 7.496-8.156 9.7-11.573 2.535-3.857 3.196-6.283 2.093-7.495-0.109-0.221-0.66-0.441-1.212-0.441-1.323 0-3.527 0.992-6.173 2.756-2.313-1.323-4.96-2.205-7.825-2.205-2.867 0-5.511 0.772-7.827 2.205-2.643-1.764-4.848-2.756-6.171-2.756-0.663 0-1.103 0.22-1.433 0.551-2.645 2.645 5.621 12.899 11.793 19.069 7.275 7.275 14.551 12.345 17.636 12.345 0.661 0 1.103-0.22 1.433-0.551 1.103-1.103 0.44-3.637-2.093-7.496l-0.111-0.111zM30.053 1.451c0.111 0 0.331 0 0.441 0.109 0.331 0.331 0.22 1.764-1.984 5.291-0.881-1.212-1.984-2.424-3.307-3.307 2.204-1.323 3.857-2.093 4.849-2.093zM3.6 6.851c-1.875-2.976-2.427-4.849-1.984-5.291 0.109-0.109 0.331-0.109 0.44-0.109 0.992 0 2.645 0.771 4.851 2.093-1.221 1.003-2.304 2.086-3.274 3.266l-0.032 0.041zM30.493 30.44c-0.111 0.109-0.331 0.109-0.44 0.109-0.993 0-2.647-0.771-4.851-2.093 1.213-0.883 2.425-1.984 3.307-3.307 2.204 3.527 2.315 4.96 1.984 5.291zM14.291 23.275c-0.992-0.881-1.984-1.764-2.867-2.756-3.637-3.637-7.164-7.715-9.369-11.021-0.88 1.983-1.431 4.188-1.431 6.392 0 2.867 0.771 5.512 2.093 7.827l-0.109 0.109c-2.536 3.859-3.197 6.284-2.095 7.496 0.331 0.331 0.881 0.551 1.433 0.551 2.424 0 7.385-3.085 12.896-7.936-0.202-0.197-0.383-0.413-0.541-0.647l-0.009-0.015zM2.055 30.549c-0.109 0-0.331 0-0.44-0.109-0.331-0.331-0.221-1.764 1.984-5.291 0.881 1.212 1.984 2.315 3.307 3.307-2.205 1.323-3.859 2.093-4.851 2.093z"></path>
</symbol>
<symbol id="icon-cakephp" viewBox="0 0 32 32">
<title>cakephp</title>
<path fill="#d33c43" style="fill: var(--color11, #d33c43)" d="M0 18.5v4.993c0 2.756 7.16 4.991 16 4.991v-4.991c-8.84 0-16-2.24-16-4.991v-0.003zM28.512 21.611l-12.512-3.111v4.993l12.512 3.111c2.181-0.853 3.488-1.933 3.488-3.111v-4.993c0 1.176-1.307 2.256-3.488 3.111zM16 13.511v4.989c-8.836 0-16-2.236-16-4.992v-5.001c0-2.752 7.16-4.991 16-4.991 8.833 0 16 2.24 16 4.992v5c0 1.177-1.307 2.253-3.488 3.112l-12.512-3.109z"></path>
</symbol>
<symbol id="icon-hackerrank" viewBox="0 0 32 32">
<title>hackerrank</title>
<path fill="#2ec866" style="fill: var(--color12, #2ec866)" d="M16 0c1.713 0 13 6.515 13.856 8 0.86 1.487 0.86 14.513 0 16s-12.14 8-13.856 8-13-6.513-13.86-8c-0.855-1.487-0.855-14.513 0-16 0.86-1.485 12.147-8 13.86-8zM19.060 9.065c-0.188 0-0.344 0.153-0.344 0.344v5.167h-5.432v-5.365h0.935c0.188 0 0.339-0.153 0.339-0.344 0-0.125-0.065-0.235-0.164-0.295l-2.096-2.012c-0.065-0.084-0.188-0.145-0.301-0.145-0.112 0-0.213 0.060-0.276 0.143l-2.24 2.016c-0.096 0.060-0.16 0.168-0.16 0.291 0 0.191 0.151 0.344 0.34 0.344h0.939l0.011 13.38c0 0.193 0.148 0.344 0.339 0.344h1.989c0.189 0 0.345-0.153 0.345-0.341v-5.339h5.431v5.536h-0.932c-0.191 0-0.341 0.153-0.341 0.344 0 0.123 0.064 0.232 0.159 0.292l2.105 2.013c0.059 0.081 0.188 0.145 0.3 0.145 0.113 0 0.212-0.060 0.277-0.145l2.239-2.013c0.096-0.060 0.16-0.169 0.16-0.292 0-0.191-0.153-0.344-0.34-0.344h-0.939l-0.009-13.379c0-0.193-0.152-0.347-0.34-0.347h-1.992v0.003z"></path>
</symbol>
<symbol id="icon-googleplay" viewBox="0 0 32 32">
<title>googleplay</title>
<path fill="#607d8b" style="fill: var(--color13, #607d8b)" d="M1.627 0c-0.040 0.124-0.080 0.247-0.080 0.411v30.972c0 0.289 0.081 0.453 0.245 0.617l15.22-16.124-15.385-15.876zM18.039 16.944l3.935 4.060-5.617 3.2s-7.14 4.059-11.077 6.319l12.76-13.579zM19.107 15.836l4.221 4.389c0.661-0.368 5.828-3.323 6.565-3.733 0.779-0.451 0.7-1.067 0.039-1.395-0.612-0.34-5.779-3.3-6.56-3.78l-4.265 4.519zM18.036 14.769l3.979-4.225-5.679-3.241s-9.257-5.296-12.337-7.064l14.037 14.531z"></path>
</symbol>
<symbol id="icon-html5" viewBox="0 0 32 32">
<title>html5</title>
<path fill="#e34f26" style="fill: var(--color14, #e34f26)" d="M2 0h28l-2.547 28.751-11.484 3.249-11.419-3.251-2.551-28.749zM11.375 13l-0.309-3.624 13.412 0.004 0.307-3.496-17.568-0.004 0.931 10.68h12.168l-0.435 4.568-3.88 1.072-3.94-1.080-0.251-2.813h-3.479l0.44 5.561 7.229 1.933 7.172-1.924 0.992-10.876h-12.789z"></path>
</symbol>
<symbol id="icon-laravel" viewBox="0 0 32 32">
<title>laravel</title>
<path fill="#e74430" style="fill: var(--color15, #e74430)" d="M8.616 17.699l18.267-4.376c-1.011-1.436-5.607-7.951-6.049-8.569-0.5-0.699 0.011-1.025 0.823-1.16 0.811-0.139 7.8-1.312 8.397-1.399 0.503-0.073 0.92-0.236 1.616 0.409-0.64-1.523-2.151-2.593-3.911-2.593h-23.496c-2.071 0-3.792 1.479-4.164 3.443l8.517 14.245z"></path>
<path fill="#e74430" style="fill: var(--color15, #e74430)" d="M30.316 3.843c-0.275 0.059-6.353 1.159-6.727 1.209-0.373 0.049-0.251 0.259-0.099 0.473l5.348 7.336 3.161-0.777v-6.841c-0.44-0.56-0.759-0.972-0.835-1.081-0.34-0.459-0.576-0.383-0.849-0.319zM32 20.172c-1.553-2.131-3.248-4.448-3.409-4.677-0.221-0.32-0.34-0.38-0.864-0.212l-17.808 4.636s5.467 9.472 5.885 10.072c0.42 0.608 0.677 0.557 1.004 0.419 0.241-0.107 10.395-3.539 15.191-5.163v-5.071l0.001-0.004zM32 17.039v-2.677l-1.667 0.445 1.667 2.232zM21.068 31.989h6.692c2.233 0 4.063-1.725 4.228-3.915-3.417 1.236-7.844 2.819-10.921 3.915zM7.396 20.573l-7.396 1.927v5.248c0.023 2.343 1.921 4.243 4.26 4.243h9.592c-1.255-2.049-4.671-8.204-6.444-11.417zM5.915 17.815l-5.892-10.176v12.131l5.771-1.377c0.471-0.109 0.359-0.171 0.127-0.576z"></path>
<path fill="#e74430" style="fill: var(--color15, #e74430)" d="M30.193 14.612l1.807-0.491v0.84l-1.239 0.415-0.568-0.764z"></path>
</symbol>
<symbol id="icon-mongodb" viewBox="0 0 32 32">
<title>mongodb</title>
<path fill="#47a248" style="fill: var(--color16, #47a248)" d="M22.907 12.691c-1.684-7.413-5.656-9.849-6.083-10.781-0.469-0.657-0.977-1.909-0.977-1.909-0.003 0.025-0.005 0.041-0.007 0.065v0.017h-0.001c-0.003 0.020-0.004 0.033-0.005 0.052v0.020h-0.003c0 0.013-0.003 0.024-0.003 0.035v0.035h-0.004c-0.001 0.011-0.001 0.024-0.004 0.033v0.028h-0.003c0 0.009 0 0.020-0.003 0.028v0.027h-0.003c0 0.013-0.001 0.029-0.003 0.043v0.003c-0.004 0.023-0.008 0.045-0.012 0.067v0.011h-0.003c-0.001 0.005-0.004 0.011-0.004 0.016v0.023h-0.004v0.029h-0.007v0.024h-0.007v0.028h-0.005v0.025h-0.005v0.023h-0.008v0.019h-0.005v0.024h-0.005v0.019h-0.007v0.017h-0.004v0.020h-0.005c-0.001 0.001-0.001 0.004-0.001 0.005v0.013h-0.004c-0.001 0.003-0.001 0.005-0.001 0.008v0.008h-0.003c-0.001 0.004-0.003 0.011-0.003 0.013-0.004 0.009-0.009 0.019-0.013 0.028v0.003c-0.003 0.003-0.005 0.007-0.007 0.009v0.011h-0.005v0.011h-0.007v0.011h-0.004v0.013h-0.008v0.019h-0.005v0.005h-0.005v0.011h-0.005v0.015h-0.005v0.011h-0.008v0.015h-0.005v0.011h-0.007v0.011h-0.004v0.013h-0.007v0.011h-0.005v0.008h-0.005v0.011h-0.008v0.012h-0.005v0.008h-0.007v0.011h-0.005v0.015h-0.007v0.005h-0.004v0.011h-0.008v0.005h-0.005v0.013h-0.005v0.005h-0.005v0.011h-0.007v0.008h-0.004l-0.003 0.005v0.005h-0.003c-0.001 0.003-0.003 0.003-0.003 0.005v0.001h-0.001c-0.001 0.004-0.003 0.007-0.005 0.009v0.004h-0.001c-0.007 0.008-0.011 0.016-0.016 0.024v0.001c-0.003 0.003-0.009 0.008-0.012 0.013v0.003h-0.001c-0.001 0.001-0.004 0.003-0.004 0.004v0.004h-0.003l-0.004 0.004v0.001h-0.001c0 0.001-0.003 0.003-0.004 0.005v0.005h-0.004l-0.003 0.003v0.003h-0.003c0 0.003-0.003 0.003-0.003 0.004v0.004h-0.005c0 0.001-0.001 0.003-0.003 0.004v0.008h-0.004v0.005h-0.005v0.008h-0.005v0.011h-0.007v-0.011h-0.007v0.005h-0.005v0.008h-0.007v0.011h-0.007v0.005h-0.005v0.008h-0.005v0.005h-0.005v0.011h-0.008v0.005h-0.005v0.008h-0.007v0.005h-0.005v0.007h-0.007v0.013h-0.003v0.005h-0.008v0.007h-0.005v0.003h-0.005v0.005h-0.007v0.013h-0.005v0.005h-0.007v0.005h-0.005v0.008h-0.007v0.005h-0.007v0.005h-0.005v0.005h-0.005v0.013h-0.005v0.007h-0.008v0.005h-0.005v0.005h-0.007v0.008h-0.005v0.005h-0.007v0.009h-0.005v0.005h-0.008v0.008h-0.003v0.005h-0.005v0.005h-0.007v0.005h-0.005v0.008h-0.007v0.005h-0.004c-0.001 0.001-0.001 0.003-0.001 0.003v0.003h-0.003l-0.005 0.005s-0.003 0.003-0.005 0.004v0.008h-0.005v0.007h-0.005v0.005h-0.005v0.005h-0.004l-0.004 0.004v0.004h-0.003l-0.003 0.003v0.004h-0.003c-0.007 0.008-0.009 0.013-0.019 0.021-0.003 0.003-0.011 0.009-0.016 0.013-0.016 0.011-0.036 0.028-0.052 0.043-0.011 0.007-0.021 0.016-0.029 0.023v0.001h-0.001c-0.021 0.017-0.041 0.033-0.065 0.052v0.001c-0.032 0.027-0.063 0.052-0.099 0.083v-0.001h-0.003c-0.076 0.063-0.156 0.133-0.248 0.212v0.001h-0.001c-0.225 0.197-0.493 0.451-0.793 0.757l-0.025 0.025c-1.813 1.876-4.671 5.785-4.972 12.103-0.027 0.523-0.021 1.031 0.008 1.525v0.012c0.145 2.489 0.927 4.615 1.904 6.341v0.001c0.389 0.688 0.809 1.313 1.235 1.873v0.001c1.469 1.94 2.969 3.089 3.352 3.368 0.588 1.364 0.533 3.705 0.533 3.705l0.859 0.287s-0.175-2.268 0.071-3.363c0.076-0.343 0.256-0.635 0.465-0.883 0.141-0.1 0.56-0.401 1.063-0.86 0.024-0.025 0.037-0.048 0.059-0.072 2.028-1.891 5.816-6.547 4.517-14.132z"></path>
</symbol>
<symbol id="icon-microsoftaccess" viewBox="0 0 32 32">
<title>microsoftaccess</title>
<path fill="#ba141a" style="fill: var(--color17, #ba141a)" d="M32 20.025c-0.068 0.723-1.031 1.3-2.887 1.72-1.856 0.427-4.184 0.639-6.987 0.639-0.828 0-1.621-0.011-2.38-0.035v4.377c0.759 0.044 1.552 0.071 2.38 0.071 2.792-0.027 5.12-0.273 6.979-0.751s2.827-1.077 2.895-1.801v-4.22zM22.091 16.869c-0.804 0-1.599-0.021-2.379-0.068l0.035 4.46c0.76 0.021 1.551 0.040 2.38 0.040 2.8-0.020 5.131-0.26 6.985-0.74 1.856-0.461 2.82-1.060 2.887-1.78v-4.301c-0.068 0.724-1.035 1.304-2.904 1.74-1.865 0.44-4.2 0.66-7.005 0.66v-0.011zM22.091 11.373c-0.804 0-1.599-0.025-2.379-0.071v4.447c0.78 0.045 1.576 0.071 2.379 0.071 2.801-0.025 5.14-0.271 7.005-0.74 1.868-0.472 2.836-1.071 2.904-1.795v-4.273c-0.068 0.725-1.035 1.301-2.904 1.725-1.865 0.423-4.2 0.639-7.005 0.639v-0.003zM22.091 5.204c-0.804 0-1.599 0.033-2.379 0.103v4.929c0.78 0.045 1.576 0.067 2.379 0.067 2.801-0.020 5.14-0.265 7.005-0.731 1.869-0.464 2.836-1.067 2.904-1.801-0.068-0.723-1.035-1.327-2.904-1.808-1.865-0.48-4.2-0.72-7.005-0.741v-0.017zM8.632 12.148c-0.043 0.263-0.228 1.099-0.549 2.5l-0.6 2.445 2.4 0.033-0.56-2.447c-0.341-1.425-0.561-2.279-0.601-2.52h-0.080l-0.009-0.012zM0 4.204v23.679l18.060 3.117v-30l-18.060 3.204zM11.045 21.849l-0.672-2.669-3.325-0.12-0.639 2.515-2.121-0.14 3.225-11.3 2.467-0.139 3.519 11.993-2.453-0.14z"></path>
</symbol>
<symbol id="icon-codio" viewBox="0 0 32 32">
<title>codio</title>
<path fill="#4574e0" style="fill: var(--color18, #4574e0)" d="M15.996 32l-13.856-8.004v-16l13.86-7.996 13.861 7.996-7.861 4.54-6-3.469-6.005 3.467v6.933l6.003 3.467 6-3.467 7.86 4.529-13.861 8.004z"></path>
</symbol>
<symbol id="icon-php" viewBox="0 0 32 32">
<title>php</title>
<path fill="#777bb4" style="fill: var(--color19, #777bb4)" d="M9.347 13.609h-1.259l-0.687 3.531h1.117c0.741 0 1.293-0.14 1.656-0.419 0.363-0.28 0.607-0.745 0.733-1.399 0.123-0.627 0.067-1.069-0.165-1.327-0.233-0.257-0.697-0.387-1.396-0.387z"></path>
<path fill="#777bb4" style="fill: var(--color19, #777bb4)" d="M16 7.584c-8.836 0-16 3.768-16 8.416s7.164 8.417 16 8.417 16-3.769 16-8.417c0-4.648-7.164-8.416-16-8.416zM11.653 17.519c-0.348 0.333-0.767 0.584-1.223 0.735-0.448 0.144-1.020 0.219-1.713 0.219h-1.575l-0.436 2.241h-1.837l1.64-8.435h3.533c1.063 0 1.837 0.279 2.325 0.837 0.488 0.557 0.635 1.336 0.44 2.336-0.082 0.425-0.223 0.803-0.416 1.148l0.010-0.019c-0.191 0.34-0.44 0.653-0.748 0.937zM17.019 18.472l0.724-3.732c0.084-0.424 0.052-0.715-0.091-0.868-0.143-0.155-0.448-0.232-0.916-0.232h-1.456l-0.939 4.833h-1.824l1.64-8.436h1.823l-0.436 2.243h1.624c1.023 0 1.727 0.179 2.115 0.535s0.504 0.933 0.351 1.732l-0.763 3.925h-1.852zM27.148 15.452c-0.080 0.425-0.221 0.803-0.416 1.148l0.010-0.018c-0.191 0.34-0.44 0.653-0.748 0.937-0.338 0.323-0.746 0.574-1.2 0.728l-0.023 0.007c-0.448 0.144-1.020 0.219-1.715 0.219h-1.573l-0.436 2.243h-1.837l1.64-8.435h3.532c1.063 0 1.837 0.279 2.325 0.837 0.488 0.556 0.636 1.335 0.441 2.335z"></path>
<path fill="#777bb4" style="fill: var(--color19, #777bb4)" d="M23.688 13.609h-1.257l-0.688 3.531h1.117c0.743 0 1.295-0.14 1.656-0.419 0.363-0.28 0.607-0.745 0.735-1.399 0.123-0.627 0.065-1.069-0.167-1.327s-0.699-0.387-1.396-0.387z"></path>
</symbol>
<symbol id="icon-automatic" viewBox="0 0 32 32">
<title>automatic</title>
<path fill="#7d8084" style="fill: var(--color20, #7d8084)" d="M16 9.024v0.003-1.649c-0.647 0.044-1.005 0.391-1.32 0.947l-6.853 13.969h3.285l-1.004-1.28 0.872-1.817 0.007 0.009 5.013-10.173v-0.008zM14.035 17.497h3.928l-1.963-4.063z"></path>
<path fill="#7d8084" style="fill: var(--color20, #7d8084)" d="M10.977 19.221h0.023l-0.013-0.017zM17.964 17.497v0.003z"></path>
<path fill="#7d8084" style="fill: var(--color20, #7d8084)" d="M28.661 6.755l-10.981-6.344c-0.924-0.533-2.436-0.533-3.36 0l-10.981 6.344c-0.924 0.531-1.68 1.84-1.68 2.909v12.676c0 1.069 0.756 2.376 1.68 2.907l10.981 6.343c0.924 0.533 2.435 0.533 3.36 0l10.98-6.357c0.923-0.52 1.68-1.84 1.68-2.899v-12.672c0-1.067-0.756-2.373-1.68-2.907zM20.573 22.821l-0.916-1.845h-7.333l-0.897 1.845h-4.377l7.195-14.711c0.407-0.809 1.036-1.2 1.756-1.2s1.379 0.437 1.755 1.187l7.195 14.724h-4.376z"></path>
<path fill="#7d8084" style="fill: var(--color20, #7d8084)" d="M16 9.027v3.299l3.357 6.897h-8.357l1.011 1.253h7.963l0.899 1.8h3.299l-2.277-1.32v0.053l-5.893-11.983z"></path>
</symbol>
<symbol id="icon-react" viewBox="0 0 32 32">
<title>react</title>
<path fill="#61dafb" style="fill: var(--color21, #61dafb)" d="M18.852 16c0 1.575-1.277 2.852-2.852 2.852s-2.852-1.277-2.852-2.852c0-1.575 1.277-2.852 2.852-2.852s2.852 1.277 2.852 2.852z"></path>
<path fill="#61dafb" style="fill: var(--color21, #61dafb)" d="M8.011 21.673l-0.629-0.16c-4.691-1.185-7.381-3.197-7.381-5.519s2.691-4.333 7.381-5.519l0.629-0.159 0.177 0.624c0.545 1.86 1.163 3.443 1.899 4.957l-0.082-0.186 0.135 0.284-0.135 0.284c-0.656 1.329-1.275 2.912-1.761 4.551l-0.056 0.22-0.177 0.623zM7.089 11.933c-3.565 1.001-5.753 2.533-5.753 4.061 0 1.527 2.188 3.059 5.753 4.061 0.512-1.62 1.046-2.965 1.662-4.263l-0.086 0.202c-0.531-1.098-1.066-2.443-1.511-3.828l-0.065-0.234zM23.989 21.673l-0.177-0.625c-0.544-1.859-1.162-3.441-1.9-4.954l0.081 0.184-0.135-0.284 0.135-0.284c0.656-1.329 1.275-2.911 1.762-4.55l0.056-0.221 0.177-0.624 0.631 0.159c4.689 1.185 7.38 3.197 7.38 5.52s-2.691 4.333-7.38 5.519l-0.631 0.16zM23.335 15.995c0.64 1.385 1.169 2.747 1.576 4.061 3.567-1.003 5.753-2.535 5.753-4.061 0-1.528-2.188-3.059-5.753-4.061-0.511 1.619-1.045 2.963-1.662 4.262l0.086-0.2z"></path>
<path fill="#61dafb" style="fill: var(--color21, #61dafb)" d="M7.080 11.927l-0.177-0.623c-1.319-4.648-0.919-7.979 1.097-9.141 1.977-1.141 5.152 0.207 8.479 3.621l0.453 0.465-0.453 0.465c-1.146 1.19-2.207 2.482-3.162 3.853l-0.068 0.103-0.18 0.257-0.313 0.027c-1.875 0.151-3.596 0.439-5.264 0.86l0.218-0.047-0.629 0.159zM9.608 3.087c-0.357 0-0.673 0.077-0.94 0.231-1.325 0.764-1.56 3.42-0.647 7.004 1.21-0.285 2.681-0.521 4.18-0.658l0.131-0.010c0.894-1.264 1.792-2.37 2.756-3.414l-0.020 0.022c-2.080-2.025-4.049-3.175-5.46-3.175zM22.393 30.236c-0.001 0-0.001 0 0 0-1.9 0-4.34-1.431-6.872-4.031l-0.453-0.465 0.453-0.465c1.146-1.19 2.206-2.482 3.16-3.854l0.068-0.103 0.18-0.257 0.312-0.027c1.875-0.15 3.597-0.438 5.267-0.858l-0.218 0.046 0.629-0.159 0.179 0.624c1.316 4.645 0.917 7.977-1.099 9.139-0.449 0.259-0.988 0.411-1.562 0.411-0.016 0-0.031-0-0.047-0l0.002 0zM16.932 25.728c2.080 2.025 4.049 3.175 5.46 3.175h0.001c0.356 0 0.673-0.077 0.939-0.231 1.325-0.764 1.561-3.421 0.647-7.005-1.212 0.286-2.682 0.522-4.182 0.658l-0.13 0.010c-0.893 1.265-1.791 2.371-2.755 3.416l0.020-0.022z"></path>
<path fill="#61dafb" style="fill: var(--color21, #61dafb)" d="M24.92 11.927l-0.629-0.159c-1.453-0.376-3.175-0.664-4.939-0.806l-0.111-0.007-0.312-0.027-0.18-0.257c-1.021-1.474-2.082-2.766-3.237-3.966l0.009 0.010-0.453-0.465 0.453-0.465c3.325-3.413 6.499-4.761 8.479-3.621 2.016 1.163 2.416 4.493 1.099 9.14l-0.179 0.624zM19.667 9.653c1.523 0.139 2.969 0.364 4.312 0.668 0.915-3.584 0.679-6.24-0.647-7.004-1.317-0.761-3.793 0.405-6.4 2.944 0.943 1.022 1.841 2.128 2.666 3.289l0.069 0.103zM9.608 30.236c-0.014 0-0.030 0-0.046 0-0.574 0-1.113-0.152-1.577-0.419l0.015 0.008c-2.016-1.161-2.416-4.492-1.097-9.139l0.176-0.624 0.629 0.159c1.54 0.388 3.239 0.661 5.047 0.812l0.313 0.027 0.179 0.257c1.022 1.475 2.083 2.767 3.239 3.967l-0.010-0.010 0.453 0.465-0.453 0.465c-2.531 2.6-4.971 4.031-6.868 4.031zM8.021 21.667c-0.915 3.584-0.679 6.241 0.647 7.005 1.316 0.751 3.791-0.407 6.4-2.944-0.943-1.022-1.841-2.129-2.667-3.29l-0.069-0.103c-1.629-0.146-3.099-0.382-4.534-0.711l0.224 0.043z"></path>
<path fill="#61dafb" style="fill: var(--color21, #61dafb)" d="M16 22.504c-1.097 0-2.225-0.048-3.355-0.141l-0.313-0.027-0.18-0.257c-0.544-0.768-1.139-1.691-1.697-2.639l-0.103-0.19c-0.452-0.758-0.971-1.732-1.45-2.728l-0.105-0.243-0.133-0.284 0.133-0.284c0.584-1.239 1.102-2.212 1.658-3.161l-0.103 0.191c0.552-0.955 1.159-1.907 1.8-2.829l0.18-0.257 0.313-0.027c1.005-0.090 2.174-0.142 3.355-0.142s2.35 0.052 3.505 0.153l-0.15-0.011 0.312 0.027 0.179 0.257c1.177 1.666 2.294 3.567 3.252 5.56l0.104 0.24 0.135 0.284-0.135 0.284c-1.058 2.232-2.176 4.133-3.439 5.925l0.083-0.125-0.179 0.257-0.312 0.027c-1.129 0.093-2.259 0.141-3.356 0.141zM13.071 21.059c1.973 0.148 3.885 0.148 5.86 0 1.004-1.445 1.978-3.104 2.827-4.836l0.101-0.228c-0.947-1.958-1.922-3.617-3.012-5.19l0.083 0.126c-0.877-0.071-1.898-0.111-2.929-0.111s-2.052 0.040-3.063 0.119l0.134-0.008c-1.008 1.447-1.983 3.106-2.83 4.84l-0.099 0.224c0.951 1.96 1.926 3.619 3.014 5.193l-0.085-0.13z"></path>
</symbol>
<symbol id="icon-css3" viewBox="0 0 32 32">
<title>css3</title>
<path fill="#1572b6" style="fill: var(--color22, #1572b6)" d="M2 0h28l-2.547 28.751-11.484 3.249-11.42-3.251-2.549-28.749zM24.787 5.884l-17.573-0.004 0.284 3.496 13.5 0.003-0.34 3.621h-8.853l0.32 3.431h8.243l-0.488 4.697-3.88 1.072-3.941-1.080-0.251-2.813h-3.48l0.387 5.14 7.287 2.271 7.164-2.040 1.623-17.792z"></path>
</symbol>
<symbol id="icon-mysql" viewBox="0 0 32 32">
<title>mysql</title>
<path fill="#4479a1" style="fill: var(--color23, #4479a1)" d="M21.873 7.568c-0.153 0-0.257 0.019-0.365 0.044v0.017h0.019c0.072 0.139 0.195 0.24 0.285 0.364 0.072 0.143 0.133 0.285 0.205 0.427l0.019-0.020c0.125-0.088 0.187-0.229 0.187-0.444-0.053-0.063-0.061-0.125-0.107-0.187-0.053-0.089-0.168-0.133-0.24-0.204zM7.693 25.16h-1.236c-0.040-2.083-0.164-4.040-0.36-5.88h-0.011l-1.88 5.88h-0.94l-1.867-5.88h-0.013c-0.137 1.764-0.224 3.724-0.26 5.88h-1.127c0.073-2.621 0.256-5.080 0.547-7.373h1.533l1.78 5.419h0.011l1.796-5.419h1.46c0.323 2.687 0.512 5.147 0.571 7.373zM13.049 19.72c-0.504 2.727-1.168 4.711-1.989 5.947-0.643 0.955-1.347 1.431-2.111 1.431-0.204 0-0.453-0.061-0.755-0.184v-0.659c0.147 0.023 0.32 0.035 0.515 0.035 0.357 0 0.644-0.1 0.863-0.296 0.263-0.24 0.393-0.509 0.393-0.807 0-0.207-0.103-0.627-0.307-1.259l-1.352-4.208h1.213l0.969 3.147c0.219 0.715 0.311 1.213 0.273 1.497 0.533-1.419 0.904-2.969 1.113-4.644h1.173zM29.483 25.16h-3.507v-7.373h1.18v6.467h2.327zM25.056 25.34l-1.355-0.667c0.12-0.101 0.236-0.211 0.34-0.333 0.577-0.675 0.864-1.677 0.864-3.004 0-2.44-0.957-3.661-2.873-3.661-0.939 0-1.672 0.309-2.2 0.929-0.573 0.677-0.861 1.675-0.861 2.993 0 1.296 0.253 2.248 0.765 2.853 0.467 0.547 1.169 0.82 2.111 0.82 0.352 0 0.675-0.044 0.967-0.131l1.767 1.029 0.48-0.829zM20.667 23.684c-0.3-0.48-0.449-1.253-0.449-2.315 0-1.857 0.565-2.787 1.693-2.787 0.591 0 1.027 0.223 1.303 0.667 0.299 0.483 0.448 1.248 0.448 2.297 0 1.872-0.565 2.811-1.693 2.811-0.593 0-1.027-0.223-1.304-0.667zM18.456 23.117c0 0.627-0.229 1.141-0.688 1.541s-1.071 0.6-1.845 0.6c-0.724 0-1.419-0.229-2.097-0.687l0.316-0.635c0.584 0.293 1.111 0.437 1.587 0.437 0.443 0 0.791-0.097 1.044-0.293 0.251-0.196 0.4-0.472 0.4-0.82 0-0.44-0.307-0.813-0.864-1.127-0.517-0.284-1.551-0.876-1.551-0.876-0.563-0.409-0.843-0.848-0.843-1.569 0-0.6 0.209-1.080 0.627-1.447 0.42-0.371 0.96-0.553 1.627-0.553 0.683 0 1.307 0.181 1.867 0.547l-0.284 0.635c-0.48-0.203-0.953-0.307-1.419-0.307-0.377 0-0.669 0.091-0.872 0.275-0.204 0.181-0.331 0.413-0.331 0.699 0 0.437 0.312 0.813 0.888 1.133 0.524 0.287 1.583 0.893 1.583 0.893 0.577 0.407 0.864 0.84 0.864 1.557z"></path>
<path fill="#4479a1" style="fill: var(--color23, #4479a1)" d="M30.965 15.315c-0.713-0.019-1.267 0.053-1.729 0.251-0.133 0.053-0.347 0.053-0.365 0.223 0.073 0.071 0.084 0.187 0.147 0.285 0.107 0.179 0.291 0.417 0.461 0.543 0.187 0.147 0.373 0.288 0.569 0.413 0.347 0.213 0.74 0.34 1.080 0.555 0.193 0.125 0.391 0.284 0.587 0.417 0.097 0.067 0.16 0.187 0.285 0.229v-0.027c-0.061-0.080-0.080-0.196-0.14-0.285-0.089-0.089-0.179-0.169-0.267-0.257-0.259-0.347-0.58-0.649-0.927-0.9-0.285-0.195-0.909-0.467-1.027-0.793l-0.017-0.019c0.195-0.017 0.427-0.088 0.613-0.141 0.303-0.080 0.58-0.063 0.893-0.141 0.141-0.036 0.284-0.080 0.427-0.125v-0.080c-0.16-0.16-0.28-0.377-0.445-0.527-0.453-0.393-0.956-0.776-1.472-1.097-0.28-0.179-0.635-0.293-0.929-0.445-0.107-0.053-0.285-0.080-0.347-0.169-0.16-0.195-0.253-0.453-0.367-0.685-0.256-0.491-0.507-1.033-0.729-1.551-0.16-0.349-0.257-0.697-0.453-1.017-0.92-1.516-1.916-2.435-3.448-3.333-0.329-0.187-0.724-0.267-1.141-0.365-0.223-0.011-0.445-0.027-0.667-0.036-0.147-0.063-0.288-0.232-0.413-0.313-0.507-0.32-1.819-1.013-2.192-0.096-0.24 0.579 0.356 1.149 0.563 1.443 0.153 0.204 0.347 0.437 0.453 0.667 0.063 0.155 0.080 0.313 0.143 0.475 0.141 0.392 0.276 0.829 0.463 1.196 0.097 0.187 0.204 0.383 0.329 0.551 0.072 0.097 0.195 0.143 0.223 0.303-0.125 0.181-0.133 0.445-0.205 0.667-0.32 1.009-0.195 2.257 0.259 3 0.143 0.221 0.483 0.712 0.937 0.524 0.4-0.16 0.312-0.667 0.427-1.113 0.027-0.107 0.009-0.177 0.064-0.249v0.020c0.125 0.251 0.251 0.489 0.365 0.74 0.275 0.437 0.755 0.891 1.156 1.193 0.213 0.16 0.383 0.437 0.649 0.536v-0.027h-0.020c-0.057-0.077-0.133-0.115-0.205-0.177-0.16-0.16-0.34-0.356-0.467-0.533-0.373-0.503-0.703-1.053-0.996-1.624-0.147-0.28-0.269-0.581-0.387-0.857-0.053-0.107-0.053-0.267-0.143-0.32-0.133 0.195-0.329 0.364-0.427 0.604-0.169 0.384-0.187 0.856-0.251 1.347-0.036 0.009-0.019 0-0.036 0.019-0.285-0.069-0.383-0.365-0.489-0.613-0.267-0.633-0.311-1.651-0.080-2.38 0.063-0.187 0.329-0.776 0.223-0.955-0.056-0.169-0.232-0.267-0.329-0.404-0.116-0.165-0.24-0.38-0.32-0.569-0.213-0.499-0.32-1.051-0.552-1.549-0.107-0.231-0.293-0.472-0.445-0.684-0.169-0.24-0.356-0.409-0.491-0.693-0.044-0.097-0.107-0.259-0.036-0.365 0.019-0.072 0.056-0.1 0.125-0.12 0.117-0.096 0.447 0.029 0.563 0.083 0.329 0.133 0.607 0.259 0.883 0.445 0.125 0.088 0.26 0.257 0.42 0.301h0.187c0.285 0.063 0.607 0.019 0.873 0.097 0.473 0.152 0.9 0.373 1.283 0.613 1.168 0.741 2.128 1.793 2.78 3.048 0.107 0.205 0.153 0.393 0.251 0.607 0.187 0.44 0.417 0.884 0.607 1.309 0.187 0.42 0.367 0.848 0.635 1.196 0.133 0.187 0.669 0.284 0.909 0.381 0.177 0.080 0.453 0.153 0.613 0.251 0.307 0.187 0.605 0.4 0.893 0.605 0.147 0.101 0.591 0.324 0.617 0.504z"></path>
</symbol>
<symbol id="icon-wordpress" viewBox="0 0 32 32">
<title>wordpress</title>
<path fill="#21759b" style="fill: var(--color24, #21759b)" d="M28.625 9.1c1.12 2.049 1.757 4.4 1.757 6.9 0 5.305-2.875 9.941-7.151 12.433l4.393-12.703c0.82-2.053 1.093-3.695 1.093-5.152 0-0.54-0.035-1.040-0.093-1.48zM17.984 9.239c0.863-0.040 1.643-0.14 1.643-0.14 0.776-0.1 0.685-1.24-0.089-1.199 0 0-2.34 0.18-3.84 0.18-1.419 0-3.8-0.2-3.8-0.2-0.78-0.040-0.881 1.14-0.1 1.18 0 0 0.72 0.081 1.5 0.12l2.24 6.14-3.16 9.44-5.239-15.56c0.865-0.040 1.645-0.133 1.645-0.133 0.78-0.1 0.688-1.24-0.087-1.195 0 0-2.328 0.184-3.832 0.184-0.267 0-0.584-0.011-0.92-0.020 2.603-3.836 7.035-6.416 12.055-6.416 3.745 0 7.153 1.429 9.715 3.777-0.061-0.004-0.121-0.012-0.188-0.012-1.413 0-2.416 1.231-2.416 2.552 0 1.187 0.684 2.191 1.413 3.375 0.548 0.96 1.187 2.191 1.187 3.969 0 1.22-0.472 2.659-1.095 4.639l-1.433 4.78-5.2-15.48 0.001 0.019zM16 30.379c-1.412 0-2.775-0.204-4.064-0.583l4.316-12.541 4.42 12.116c0.032 0.071 0.067 0.135 0.104 0.199-1.493 0.524-3.1 0.812-4.776 0.812zM1.615 16c0-2.085 0.448-4.067 1.247-5.853l6.859 18.799c-4.795-2.332-8.104-7.251-8.105-12.945zM16 0c-8.82 0-16 7.18-16 16s7.18 16 16 16 16-7.18 16-16-7.18-16-16-16z"></path>
</symbol>
<symbol id="icon-atom" viewBox="0 0 32 32">
<title>atom</title>
<path fill="#66595c" style="fill: var(--color25, #66595c)" d="M27.328 12.035c-2.911-1.24-6.821-2.040-11-2.26-0.667-0.040-1.316-0.053-1.933-0.053 3.091-3.773 6.403-6.307 8.583-6.387 0.429-0.017 0.793 0.073 1.084 0.261 0.941 0.611 1.207 2.357 0.727 4.787-0.053 0.333 0.16 0.657 0.48 0.72 0.333 0.067 0.653-0.147 0.72-0.48 0.6-3.040 0.16-5.128-1.253-6.051-0.507-0.331-1.12-0.487-1.8-0.461-2.733 0.103-6.587 3.067-10.12 7.627-1.539 0.047-2.987 0.173-4.309 0.383-0.861-3.863-0.52-6.636 0.792-7.303 0.184-0.097 0.38-0.147 0.609-0.165 0.929-0.072 2.213 0.527 3.613 1.693 0.259 0.213 0.648 0.187 0.861-0.080 0.217-0.26 0.179-0.64-0.080-0.86-1.68-1.392-3.229-2.072-4.496-1.979-0.381 0.033-0.741 0.131-1.071 0.293-1.587 0.809-2.227 3.103-1.827 6.451 0.093 0.693 0.213 1.416 0.387 2.16-4.375 0.875-7.161 2.627-7.281 4.832-0.080 1.56 1.153 3.045 3.573 4.296 0.299 0.153 0.669 0.040 0.827-0.267 0.152-0.299 0.040-0.667-0.267-0.821-1.933-0.995-2.973-2.117-2.911-3.144 0.067-1.44 2.363-2.92 6.347-3.707 0.36 1.325 0.827 2.709 1.4 4.12-1.357 2.517-2.341 4.996-2.849 7.2-0.747 3.287-0.347 5.627 1.147 6.597 0.48 0.312 1.040 0.467 1.663 0.467 1.247 0 2.756-0.613 4.463-1.829 0.28-0.2 0.341-0.58 0.147-0.853-0.196-0.275-0.577-0.341-0.853-0.141-2.059 1.471-3.792 1.963-4.749 1.337-1.013-0.66-1.235-2.591-0.613-5.301 0.427-1.848 1.209-3.907 2.277-6.027 0.267 0.584 0.547 1.168 0.84 1.751 1.9 3.728 4.227 6.969 6.547 9.127 1.848 1.72 3.565 2.617 4.98 2.617 0.467 0 0.907-0.1 1.301-0.297 1.527-0.78 2.187-2.947 1.864-6.1-0.299-2.951-1.413-6.547-3.139-10.133-0.147-0.303-0.512-0.431-0.813-0.288-0.307 0.147-0.44 0.513-0.293 0.816 3.587 7.469 3.84 13.587 1.827 14.613-2.12 1.084-7.232-3.14-11.187-10.907-0.453-0.873-0.849-1.733-1.2-2.573 0.453-0.811 0.933-1.627 1.46-2.44 0.527-0.805 1.075-1.584 1.632-2.327h0.525c0.72 0 1.501 0.013 2.312 0.064 8.707 0.457 14.633 3.413 14.512 5.779-0.053 1.020-1.232 2.051-3.233 2.827-0.312 0.128-0.469 0.48-0.347 0.795 0.093 0.24 0.32 0.389 0.568 0.389 0.077 0 0.152-0.013 0.223-0.040 2.54-0.987 3.933-2.341 4.013-3.907 0.093-1.773-1.56-3.48-4.667-4.8v-0.013zM10.773 12.6c-0.36 0.553-0.693 1.103-1.019 1.659-0.389-1.024-0.709-2.013-0.964-2.953 0.951-0.147 1.98-0.253 3.080-0.32-0.373 0.52-0.739 1.059-1.093 1.613v-0.013z"></path>
<path fill="#66595c" style="fill: var(--color25, #66595c)" d="M17.84 16c0 1.013-0.821 1.833-1.833 1.833s-1.833-0.821-1.833-1.833c0-1.013 0.821-1.833 1.833-1.833s1.833 0.821 1.833 1.833z"></path>
</symbol>
<symbol id="icon-graphql" viewBox="0 0 32 32">
<title>graphql</title>
<path fill="#e10098" style="fill: var(--color26, #e10098)" d="M18.735 3.668l6.58 3.8c1.088-1.145 2.897-1.191 4.043-0.103 0.197 0.187 0.365 0.401 0.503 0.636 0.785 1.371 0.309 3.119-1.061 3.904-0.232 0.133-0.481 0.233-0.744 0.297v7.599c1.528 0.364 2.472 1.897 2.107 3.425-0.064 0.272-0.169 0.533-0.309 0.775-0.789 1.364-2.535 1.832-3.903 1.043-0.261-0.151-0.5-0.345-0.701-0.572l-6.54 3.776c0.496 1.499-0.317 3.113-1.815 3.608-0.289 0.095-0.589 0.144-0.893 0.144-1.575 0.001-2.852-1.273-2.853-2.848 0-0.273 0.039-0.547 0.117-0.812l-6.581-3.796c-1.088 1.139-2.895 1.183-4.035 0.093-1.139-1.088-1.181-2.895-0.093-4.035 0.377-0.396 0.861-0.675 1.392-0.804l0.001-7.599c-1.533-0.368-2.477-1.911-2.108-3.445 0.063-0.264 0.164-0.519 0.299-0.755 0.789-1.365 2.536-1.832 3.903-1.043 0.236 0.135 0.452 0.304 0.64 0.503l6.584-3.8c-0.448-1.511 0.415-3.096 1.921-3.543 0.263-0.079 0.539-0.117 0.813-0.117 1.575-0.001 2.852 1.272 2.853 2.845 0.001 0.279-0.040 0.557-0.119 0.823zM18.048 4.837c-0.025 0.028-0.049 0.052-0.077 0.077l8.615 14.92c0.035-0.012 0.075-0.021 0.109-0.031v-7.609c-1.527-0.377-2.456-1.923-2.077-3.451 0.008-0.032 0.016-0.065 0.025-0.096l-6.595-3.811zM14.028 4.916l-0.080-0.080-6.595 3.803c0.436 1.513-0.436 3.091-1.948 3.527-0.035 0.011-0.068 0.019-0.101 0.028v7.611l0.112 0.031 8.612-14.919zM16.796 5.592c-0.52 0.149-1.071 0.149-1.589 0l-8.613 14.919c0.392 0.377 0.669 0.86 0.8 1.388h17.215c0.129-0.531 0.409-1.015 0.804-1.392l-8.616-14.915zM18.111 27.228l6.551-3.784c-0.020-0.063-0.036-0.125-0.051-0.189h-17.221l-0.028 0.111 6.585 3.803c0.517-0.539 1.245-0.871 2.053-0.871 0.836 0 1.587 0.359 2.111 0.931z"></path>
</symbol>
<symbol id="icon-nginx" viewBox="0 0 32 32">
<title>nginx</title>
<path fill="#269539" style="fill: var(--color27, #269539)" d="M16 0l-13.86 8v16l13.86 8 13.86-8v-16l-13.86-8zM24 22.12c0 0.94-0.861 1.72-2.039 1.72-0.841 0-1.801-0.34-2.401-1.080l-8-9.521v8.88c0 0.961-0.76 1.72-1.699 1.72h-0.101c-0.961 0-1.72-0.8-1.72-1.72v-12.239c0-0.94 0.84-1.72 2-1.72 0.861 0 1.84 0.34 2.44 1.080l7.96 9.521v-8.881c0-0.961 0.8-1.72 1.72-1.72h0.1c0.96 0 1.72 0.8 1.72 1.72v12.24h0.020z"></path>
</symbol>
<symbol id="icon-apple" viewBox="0 0 32 32">
<title>apple</title>
<path fill="#999" style="fill: var(--color28, #999)" d="M9.437 31.4c-0.631-0.421-1.191-0.937-1.659-1.533-0.511-0.617-0.984-1.267-1.419-1.939-1.021-1.493-1.82-3.127-2.373-4.848-0.667-2.003-0.991-3.92-0.991-5.796 0-2.093 0.453-3.92 1.336-5.453 0.653-1.2 1.627-2.204 2.8-2.909 1.133-0.707 2.453-1.093 3.787-1.12 0.467 0 0.973 0.067 1.507 0.2 0.387 0.107 0.853 0.28 1.427 0.493 0.733 0.28 1.133 0.453 1.267 0.493 0.427 0.16 0.787 0.227 1.067 0.227 0.213 0 0.52-0.067 0.86-0.173 0.193-0.067 0.56-0.187 1.080-0.413 0.515-0.187 0.923-0.347 1.247-0.467 0.493-0.147 0.971-0.28 1.4-0.347 0.52-0.080 1.036-0.107 1.531-0.067 0.947 0.067 1.813 0.267 2.587 0.56 1.36 0.547 2.457 1.4 3.276 2.613-0.347 0.213-0.667 0.461-0.967 0.733-0.649 0.573-1.2 1.253-1.64 2.007-0.573 1.027-0.867 2.187-0.859 3.36 0.020 1.444 0.387 2.713 1.12 3.813 0.516 0.8 1.205 1.485 2.045 2.048 0.413 0.28 0.776 0.473 1.12 0.6-0.16 0.5-0.336 0.987-0.54 1.467-0.463 1.076-1.013 2.107-1.667 3.080-0.576 0.84-1.029 1.467-1.373 1.88-0.536 0.64-1.053 1.12-1.573 1.463-0.573 0.38-1.247 0.581-1.936 0.581-0.467 0.020-0.933-0.040-1.379-0.169-0.387-0.127-0.768-0.269-1.141-0.431-0.391-0.179-0.795-0.331-1.207-0.453-0.507-0.133-1.027-0.197-1.552-0.196-0.533 0-1.053 0.067-1.547 0.193-0.413 0.117-0.813 0.261-1.209 0.433-0.56 0.233-0.927 0.387-1.14 0.453-0.432 0.128-0.875 0.205-1.32 0.233-0.693 0-1.339-0.2-1.981-0.6zM18.576 6.787c-0.907 0.453-1.768 0.645-2.631 0.581-0.133-0.861 0-1.747 0.36-2.716 0.32-0.827 0.747-1.573 1.333-2.24 0.613-0.693 1.347-1.267 2.173-1.68 0.88-0.453 1.72-0.693 2.52-0.733 0.107 0.907 0 1.8-0.333 2.76-0.304 0.853-0.757 1.64-1.333 2.347-0.58 0.693-1.3 1.267-2.115 1.68z"></path>
</symbol>
</defs>
</svg>
